<svg class="logo-biocontrol" data-name="Camada 1" xmlns="http://www.w3.org/2000/svg" xmlns:xlink="http://www.w3.org/1999/xlink" viewBox="0 0 1610.34 790.4">
  <defs>
    <style>
      .cls-1 {
        fill: none;
      }

      .cls-2 {
        clip-path: url(#clip-path);
      }
    </style>
    <clipPath id="clip-path" transform="translate(-675.15 1244.01)">
      <rect class="cls-1" x="675.15" y="-1244.01" width="1610.34" height="790.4"/>
    </clipPath>
  </defs>
  <g class="cls-2">
    <g id="letters" class="letters">
      <path d="M675.15-478.56V-605.1q0-10.23,5.4-15.86t14.78-5.63h58.49q28.66,0,44,11.13t15.3,32.11q0,27.76-30.69,36.08Q800.81-543,810.08-532t9.27,26.74q0,24.69-16.45,36.47t-52.18,11.77H695.33q-9.51,0-14.84-5.63t-5.34-15.87m38.77-76.77h30.9q13.33,0,20.9-5.75t7.57-16q0-20.73-28.47-20.73h-30.9Zm0,69.48h33q17.24,0,25-5.5T779.56-509q0-21.75-32.44-21.62h-33.2Z" transform="translate(-675.15 1244.01)"/>
      <path d="M844-473.57V-610.09q0-17.52,16.51-17.53h5.24q17,0,17,17.53v136.52q0,17.54-17,17.53h-5.24Q844-456,844-473.57" transform="translate(-675.15 1244.01)"/>
      <path d="M933.79-478q-24.49-24.37-24.49-63.58T934-605.41Q958.66-630,997-630q38.71,0,63.21,24.51t24.5,63.71q0,39.19-24.75,63.71t-63.21,24.51q-38.46,0-63-24.38m14.27-63.9q0,24.28,13.61,39.39T997-487.39q21.74,0,35.33-15.05t13.61-39.2q0-24.27-13.73-39.45t-35.46-15.18q-21.72,0-35.21,14.92t-13.48,39.46" transform="translate(-675.15 1244.01)"/>
      <path d="M1102.88-541.76q0-38.78,24.37-63.53T1190.4-630q30.43,0,47.85,12.5t17.4,24.68a16.94,16.94,0,0,1-5.5,12.87,27.61,27.61,0,0,1-10.88,6.74c-3.58,1-5.54,1.22-5.88.52A45.21,45.21,0,0,0,1215.92-590a48.31,48.31,0,0,0-24-6.27q-21.5,0-35.38,15.1T1142.67-542q0,24.12,14,39.34t35.51,15.23a48.64,48.64,0,0,0,26-6.92,39.5,39.5,0,0,0,16.25-19.22c.34-.7,2.39-.52,6.14.52a28.49,28.49,0,0,1,11.26,6.67,16.57,16.57,0,0,1,5.63,12.81q0,13-18.11,26.45t-49.45,13.47q-38.51,0-62.75-24.56t-24.25-63.59" transform="translate(-675.15 1244.01)"/>
      <path d="M1296.9-478q-24.5-24.37-24.49-63.58t24.68-63.84q24.69-24.63,63-24.64,38.7,0,63.2,24.51t24.5,63.71q0,39.19-24.75,63.71t-63.21,24.51q-38.46,0-63-24.38m14.28-63.9q0,24.28,13.6,39.39t35.34,15.11q21.72,0,35.33-15.05t13.61-39.2q0-24.27-13.74-39.45t-35.46-15.18q-21.72,0-35.2,14.92t-13.48,39.46" transform="translate(-675.15 1244.01)"/>
      <path d="M1471.49-473.57v-135q0-9.21,4.44-14.14t12.4-4.93h4.75q7.08,0,10.86,2.37t8.81,8.64l73.77,100.82v-94.3q0-17.52,16.79-17.53H1607q16.53,0,16.53,17.53v135q0,9.21-4.3,14.14T1606.92-456h-3.09q-7.32,0-10.8-2t-8-7.49l-76.6-104.79v96.73q0,17.54-17.06,17.53h-3.64q-16.27,0-16.28-17.53" transform="translate(-675.15 1244.01)"/>
      <path d="M1641.79-609.58v-1q0-16,17.76-16h114.82q17.76,0,17.76,16v1q0,16.77-17.7,16.76H1736.6v119.25q0,17.54-17.13,17.53h-5.54q-16.1,0-16.1-17.53V-592.82H1659.5q-17.71,0-17.71-16.76" transform="translate(-675.15 1244.01)"/>
      <path d="M1811.32-477.28V-605.1q0-10.23,5.4-15.86t14.78-5.63h50.39q33.16,0,50.13,13.51t17,39.53q0,20.61-11.38,33.87T1905-522.94L1949-470a1.21,1.21,0,0,1,.39.89,6.73,6.73,0,0,1-1.54,3.43q-2.17,3.42-7.87,6.53a27.1,27.1,0,0,1-13.24,3.11,25.08,25.08,0,0,1-13.61-3.49q-5.55-3.48-11.81-12.11l-36-45.17H1850.6v43.39q0,17.39-17.09,17.38h-5.62q-16.58,0-16.57-21.24m38.77-68.32h29.49q15.2,0,22.92-6.7t7.72-18.7q0-25.39-31.4-25.4h-28.73Z" transform="translate(-675.15 1244.01)"/>
      <path d="M1990.89-478q-24.5-24.37-24.5-63.58t24.69-63.84q24.68-24.63,63-24.64,38.71,0,63.21,24.51t24.5,63.71q0,39.19-24.75,63.71t-63.22,24.51q-38.46,0-63-24.38m14.27-63.9q0,24.28,13.61,39.39t35.33,15.11q21.72,0,35.33-15.05t13.61-39.2q0-24.27-13.74-39.45t-35.46-15.18q-21.72,0-35.2,14.92t-13.48,39.46" transform="translate(-675.15 1244.01)"/>
      <path d="M2165.48-478.3V-610.09q0-17.52,16.25-17.53h5.5q17,0,17,17.56v119.22h63.46q17.77,0,17.78,16.13v1q0,16.63-17.78,16.64h-82.14q-9.48,0-14.78-5.51t-5.31-15.73" transform="translate(-675.15 1244.01)"/>
      <path d="M2247-684.46c0-11.32,8.27-19.76,19.29-19.76,11.26,0,19.23,8.15,19.23,19.58s-8.26,19.76-19.28,19.76c-11.26,0-19.24-8.15-19.24-19.58m35.36-.06c0-9.67-6.92-16.89-16.18-16.89-9.44,0-16,6.86-16,16.83,0,9.67,6.92,16.89,16.18,16.89,9.44,0,16-6.86,16-16.83m-7.92,8.62c.18.23-.64,1.46-1.93,1.46a3.11,3.11,0,0,1-2.41-1.29l-5.1-6.45h-2.58v6.1a1.44,1.44,0,0,1-1.52,1.64h-.47c-1,0-1.52-.7-1.52-1.87v-16.48a1.81,1.81,0,0,1,1.87-2H2267c5,0,7.85,2,7.85,6.27,0,3.52-2.23,5.69-6.09,6Zm-7.38-9.21c2.75,0,4.28-1.29,4.28-3.34,0-2.29-1.59-3.34-4.46-3.34h-4.51v6.68Z" transform="translate(-675.15 1244.01)"/>
    </g>
    <polyline points="890.86 314.13 890.85 314.13 890.86 314.13"/>
    <path id="symbol" class="symbol" d="M1768.63-1243.29c-56.19.34-122.84,56-178,102.89-53.85,45.84-79.65,90.77-110.28,92.94-30.62-2.25-56.32-47.24-110-93.22-31.68-27.11-67.18-57.11-102.32-77.76,35.22,17.57,70.82,44,102.58,71.1,53.78,45.91,79.62,93.08,109.26,93.08s55.47-47.17,109.26-93.08c35-29.85,74.57-58.86,113.21-76.15,22.56-12.12,44.81-19.92,65.64-20.15h-.74c-47.64.19-108.43,31.57-180.71,93.27-20.56,17.55-36.83,35-51.18,50.42-22.54,24.21-38.82,41.7-55.48,41.7s-33-17.5-55.51-41.71c-14.35-15.41-30.6-32.87-51.16-50.41-64-54.65-119-85.49-163.84-92a97.26,97.26,0,0,0-16.71-1.67c-120.83-.19-87.59,125.68-83.21,148.53,22,114.36,95,177.75,172.51,185.24a107.36,107.36,0,0,0-28.47,25c-32.06,40.8-41.44,80.75-34.79,110,2.54,15.24,8.13,23.78,8.49,24.32a54.47,54.47,0,0,0,25.55,19.66c8.88,3.33,19.55,5,31.45,5,21.74,0,47.57-5.47,74-16,42.09-16.83,79.48-43.68,102.58-73.64,10.51-13.64,16.66-24.35,19.45-34.05,2.78,9.7,8.91,20.42,19.4,34.07,23.07,30,60.42,56.89,102.49,73.77,26.51,10.64,52.39,16.15,74.16,16.15,11.83,0,22.46-1.63,31.3-4.94a54.48,54.48,0,0,0,25.61-19.68c.36-.53,6.82-10.38,9-27.88,5.06-28.84-4.78-67.08-35.32-106.14a107.34,107.34,0,0,0-28.41-25.11c77.49-7.3,150.73-70.5,173-184.82,4.44-22.83,38-148.62-82.82-148.73M1296-909.49c3,0,6.09,0,9.14-.17,61.65-2.91,102.16,5.22,128.44,15.79.38.14.75.3,1.12.45,32.86,13.88,30,34.32,11.9,50.26-24,21.15-84.25,56-140,41.64-85.6-22-36.32-97.29-10.58-108m161.6,91.11c-46.44,60.25-151,103.13-203.47,83.42a50.23,50.23,0,0,1-19.41-13c51,30.75,161.5-12.26,217.16-67.72a157.36,157.36,0,0,0,18-20.79,160.14,160.14,0,0,1-12.33,18.06m267.71,71a50.25,50.25,0,0,1-19.14,12.65c-52.47,19.65-157-23.36-203.37-83.67a168.9,168.9,0,0,1-11.36-16.45,168,168,0,0,0,16.85,19.23c55.53,55.6,166,98.89,217,68.24M1635-909.84l7.89,3.59c29.44,13.43,47.84,32.52,56.24,58.38l2.17,6.66c-2.85,16.71-16.09,32.07-47.71,40.13-55.81,14.22-115.94-20.79-139.92-42-18.07-16-20.86-36.41,12-50.21l2-.79c23.3-9.15,57.56-16.33,107.38-15.76m66.75,57.33c-9.15-25-27.77-43.82-56.65-57.12,3.33.1,6.72.24,10.19.41,3,.15,6.1.22,9.15.19,14.11,5.89,35.24,31.23,37.31,56.52m-61.48-87.33c-37.29,2.45-66,7.34-88,13.54l-2.83.82c-58.33,17.16-68.27,43.78-69.16,57.66,0,.61-.1.6-.14,0-.86-13.89-10.76-40.5-69-57.82-.88-.26-1.76-.52-2.66-.77l-2.62-.72a716.07,716.07,0,0,1,74.53-3.51,716.28,716.28,0,0,1,74.71,3.53c3.5-1,7.15-1.87,11-2.75-25-3.22-53.53-4.78-85.69-4.78s-60.48,1.55-85.44,4.75q-10.29-2.4-22.29-4.41c27.88-4.45,63.08-7.13,107.73-7.13,44.85,0,80.18,2.7,108.12,7.19,4.2-.69,8.54-1.34,13.06-2l-12.42-2c-29.91-4.8-66.5-7.24-108.76-7.24s-78.85,2.44-108.75,7.24l-12,1.92c-11.92-1.63-25-3-39.37-4-118.78-8.11-147.25-90.41-140.19-135.91,13.49-87,114.2-111.11,233.78-4.83,18.68,16.59,46.34,44.15,66.54,44.18s47.93-27.47,66.65-44c119.84-106,220.49-81.57,233.76,5.43,6.94,45.5-21.72,127.74-140.53,135.55" transform="translate(-675.15 1244.01)"/>
  </g>
</svg>
